<?xml version="1.0" encoding="utf-8"?>
<!-- Generator: Adobe Illustrator 25.2.0, SVG Export Plug-In . SVG Version: 6.00 Build 0)  -->
<svg version="1.1" id="Layer_1" xmlns="http://www.w3.org/2000/svg" xmlns:xlink="http://www.w3.org/1999/xlink" x="0px" y="0px"
	 viewBox="0 0 2500 840" style="enable-background:new 0 0 2500 840;" xml:space="preserve">
<style type="text/css">
	.st0{fill:#444551;}
</style>
<path class="st0" d="M573,200.3l-419,419c21.3,21.3,45.7,39.5,72.7,53.7l428.7-313.9C644.9,297.4,615.3,242.6,573,200.3L573,200.3z"
	/>
<path class="st0" d="M365.3,113.6L82.1,509.1c10.8,30.1,26.1,58.2,45.7,83l410.8-419.3C490.3,136.4,430.4,114.5,365.3,113.6
	L365.3,113.6z"/>
<path class="st0" d="M727.6,409.9c0,200.9-162.8,363.9-363.9,363.9S0,611.1,0,409.9S162.8,46,363.9,46S727.6,209.1,727.6,409.9z
	 M690.1,409.9c0-179.8-146.3-326.1-326.1-326.1S37.5,230.1,37.5,409.9s146.3,326.1,326.1,326.1S690.1,589.8,690.1,409.9z"/>
<path class="st0" d="M363.9,706.5c163.4,0,296.3-133,296.3-296.3L268.5,690.6C298.3,700.9,330.4,706.5,363.9,706.5L363.9,706.5z
	 M1354,291.8h-346.9v71.3h329.3v91.5h-329.3v71.3h354.8v105.4H977.8c-26.1,0-51.7-11.6-77.6-35.2c-20.5-21.6-30.4-51.1-30.4-88.4
	V320.5c0-34.1,5.1-58.2,15.3-71.9c13.9-25.3,35.5-43.2,65.3-54.3c11.1-3.7,27.6-5.4,49.4-5.4h354.3v102.8L1354,291.8z M1433,486.9
	h135.2c0.3,21.9,5.4,36.1,14.8,42.6c7.4,5.4,21.9,8,44,8h165.9c18.2,0,31.5-2,39.8-6c12.2-5.4,18.2-15.6,18.2-31
	c0-19-9.9-30.7-29.8-34.7c-19-4-72.4-6-160.5-6c-99.1,0-162.5-8.5-189.5-25.6c-14.8-9.4-24.7-23-30.4-40.9
	c-4.5-14.8-6.8-36.6-6.8-66.5c0-11.6,0.3-21.6,0.6-29.3c0.3-9.7,1.4-18.7,3.1-26.7c3.7-18.2,10.8-33.2,21.3-44.6
	c12.2-13.4,29.8-23.3,53.1-29.8c25.6-7.4,58.8-11.1,100-11.1h188.9c71.6,0,119.6,11.9,144,36.1c10.5,10.5,17.9,24.4,21.9,41.5
	c3.1,13.1,4.8,30.7,4.8,53.1v13.9h-135.2c0-17.9-3.1-29.5-9.7-34.7c-8.2-7.4-26.7-11.1-56-11.1h-150c-34.1,0-51.1,11.4-51.1,34.1
	c0,18.7,8.8,30.1,26.1,34.1c10.5,2.6,26.7,4,48.9,4.3c10.2,0.3,22.7,0.6,37.8,0.6h48.9c28.4,0,52.3,0.3,71.3,0.6
	c22.4,0.3,41.8,1.4,58,3.1c34.7,3.1,61.1,9.4,79.3,18.2c33.8,16.8,50.6,56.3,50.6,119c0,58.5-14.2,96.6-42.6,113.9
	c-26.7,16.2-86.1,24.4-177.6,24.4h-163.9c-63.9,0-108-8-132.4-23.9c-26.7-17-40.3-48.9-40.3-95.2v-30.7L1433,486.9z M2126.7,619.9
	c-25.6-13.4-44-32.4-54.8-56.8c-7.4-11.4-11.1-33.5-11.1-66.5v-308h136.1v329.3H2500v113.4h-307.4
	C2163.6,631.2,2141.8,627.6,2126.7,619.9L2126.7,619.9z"/>
</svg>
