<?xml version="1.0" encoding="utf-8"?>
<!-- Generator: Adobe Illustrator 25.2.0, SVG Export Plug-In . SVG Version: 6.00 Build 0)  -->
<svg version="1.1"
	 id="Layer_1" xmlns:cc="http://creativecommons.org/ns#" xmlns:dc="http://purl.org/dc/elements/1.1/" xmlns:inkscape="http://www.inkscape.org/namespaces/inkscape" xmlns:rdf="http://www.w3.org/1999/02/22-rdf-syntax-ns#" xmlns:sodipodi="http://sodipodi.sourceforge.net/DTD/sodipodi-0.dtd" xmlns:svg="http://www.w3.org/2000/svg"
	 xmlns="http://www.w3.org/2000/svg" xmlns:xlink="http://www.w3.org/1999/xlink" x="0px" y="0px" viewBox="0 0 1000 430.6"
	 style="enable-background:new 0 0 1000 430.6;" xml:space="preserve">
<style type="text/css">
	.st0{fill:#444551;}
</style>
<sodipodi:namedview  bordercolor="#666666" borderopacity="1" gridtolerance="10" guidetolerance="10" id="namedview13" inkscape:current-layer="Layer_1" inkscape:cx="1659.2385" inkscape:cy="219.70678" inkscape:pageopacity="0" inkscape:pageshadow="2" inkscape:window-height="705" inkscape:window-maximized="1" inkscape:window-width="1366" inkscape:window-x="-8" inkscape:window-y="-8" inkscape:zoom="0.35355339" objecttolerance="10" pagecolor="#ffffff" showgrid="false">
	</sodipodi:namedview>
<g id="g3" transform="matrix(1.7638893,0,0,1.7638893,0,9.4018555e-5)">
	<g id="g5">
		<path id="path7" inkscape:connector-curvature="0" sodipodi:nodetypes="ccccccccccc" class="st0" d="M68.9,66.7v31.7h67.1v66.3
			H68.9v78.6l-68.9,0V0h146.4l4.7,66.7H68.9z"/>
		<path id="path9" inkscape:connector-curvature="0" class="st0" d="M347.7,37.4c22.8,23.3,34.3,51.5,34.3,84.5
			c0,33.2-11.4,61.5-34.3,84.8c-22.9,23.3-50.4,35-82.7,35c-32.5,0-60.2-11.7-83-35c-22.9-23.3-34.3-51.6-34.3-84.8
			c0-33,11.4-61.1,34.3-84.5c22.8-23.3,50.5-35,83-35C297.3,2.4,324.8,14.1,347.7,37.4L347.7,37.4z M245.2,170.6
			c0,5.4,2,10.1,6,14.1c4,4,8.8,6,14.5,6c5.7,0,10.4-2,14.3-6c3.9-4,5.8-8.7,5.8-14.1V72c0-5.7-1.9-10.5-5.8-14.5
			c-3.9-4-8.7-6-14.3-6c-5.7,0-10.5,2-14.5,6c-4,4-6,8.8-6,14.5L245.2,170.6L245.2,170.6z"/>
		<path id="path11" inkscape:connector-curvature="0" class="st0" d="M489.4,244.1l-34.6-61.7l-33.5,61.7h-75.7l72.1-126.2L349.5,0
			h77.9l28.5,52.6L484.7,0h75.4l-66.7,117.2l73.6,126.9L489.4,244.1L489.4,244.1z"/>
	</g>
</g>
</svg>
