<?xml version="1.0" encoding="utf-8"?>
<!-- Generator: Adobe Illustrator 25.2.0, SVG Export Plug-In . SVG Version: 6.00 Build 0)  -->
<svg version="1.1"
	 id="svg2" xmlns:cc="http://creativecommons.org/ns#" xmlns:dc="http://purl.org/dc/elements/1.1/" xmlns:inkscape="http://www.inkscape.org/namespaces/inkscape" xmlns:rdf="http://www.w3.org/1999/02/22-rdf-syntax-ns#" xmlns:sodipodi="http://sodipodi.sourceforge.net/DTD/sodipodi-0.dtd" xmlns:svg="http://www.w3.org/2000/svg"
	 xmlns="http://www.w3.org/2000/svg" xmlns:xlink="http://www.w3.org/1999/xlink" x="0px" y="0px" viewBox="0 0 1000 304.3"
	 style="enable-background:new 0 0 1000 304.3;" xml:space="preserve">
<style type="text/css">
	.st0{fill:#444551;}
</style>
<sodipodi:namedview  bordercolor="#666666" borderopacity="1.0" fit-margin-bottom="0.5" fit-margin-left="0.5" fit-margin-right="0.5" fit-margin-top="0.5" id="base" inkscape:current-layer="layer1" inkscape:cx="885.41294" inkscape:cy="384.49862" inkscape:document-units="px" inkscape:pageopacity="0.0" inkscape:pageshadow="2" inkscape:window-height="1030" inkscape:window-maximized="0" inkscape:window-width="1060" inkscape:window-x="858" inkscape:window-y="-10" inkscape:zoom="0.23161044" pagecolor="#ffffff" showgrid="false">
	
		<inkscape:grid  empspacing="5" enabled="true" id="grid2996" originx="-64.5px" originy="404.10642px" snapvisiblegridlinesonly="true" type="xygrid" visible="true">
		</inkscape:grid>
</sodipodi:namedview>
<g id="layer1" transform="translate(-64.5,-1152.2077)" inkscape:groupmode="layer" inkscape:label="Layer 1">
	<path id="path3008" inkscape:connector-curvature="0" sodipodi:nodetypes="ccccc" class="st0" d="M65,1367.2v-210.1h36.9v210.1H65z
		"/>
	<path id="path3010" inkscape:connector-curvature="0" class="st0" d="M196.4,1214.8c-47.3,0-80.1,36.4-80.1,78
		c0,46.5,35.6,78.5,80.4,78.5c42.5,0,79.4-31.4,79.4-78.6C276.1,1253.1,245.6,1214.8,196.4,1214.8L196.4,1214.8z M195.9,1250.4
		c24.8,0,43,19.3,43,42.5c0,24.7-20.1,42.7-42.3,42.7c-26.3,0-42.8-20.8-42.8-42.6C153.8,1269.1,172.5,1250.4,195.9,1250.4z"/>
	<path id="path3012" inkscape:connector-curvature="0" sodipodi:nodetypes="ssssccccssssss" class="st0" d="M368.9,1214.8
		c-47.3,0-80.1,36.4-80.1,78c0,46.5,35.6,78.5,80.4,78.5c42.5,0,79.4-31.4,79.4-78.6c0-27.8-12-40.1-12-40.1l10.2-3.5v-29.9h-52.4
		C394.4,1219.2,383.1,1214.8,368.9,1214.8L368.9,1214.8z M368.4,1250.4c24.8,0,43,19.3,43,42.5c0,24.7-20.1,42.7-42.3,42.7
		c-26.3,0-42.8-20.8-42.8-42.6C326.3,1269.1,345,1250.4,368.4,1250.4L368.4,1250.4z"/>
	<path id="path3014" inkscape:connector-curvature="0" sodipodi:nodetypes="csccscc" class="st0" d="M411.1,1377.5
		c0,24.7-20.1,42.8-42.3,42.8c-26.3,0-42.9-21-42.9-42.8h-37.4c0,46.5,35.6,78.5,80.4,78.5c42.5,0,79.4-31.3,79.4-78.5H411.1z"/>
	<path id="path3016" inkscape:connector-curvature="0" sodipodi:nodetypes="ccccc" class="st0" d="M463.4,1367.2v-148h36.9v148
		H463.4z"/>
	<path id="path3018" inkscape:connector-curvature="0" sodipodi:nodetypes="ccccccccccccc" class="st0" d="M536.2,1367.2v-114.9
		h-19.8v-33.2h19.8v-45.5h36.9v45.5h20.3v33.2h-20.3v114.9H536.2z"/>
	
		<path id="path3020" sodipodi:cx="467.7894" sodipodi:cy="386.78851" sodipodi:rx="19.317442" sodipodi:ry="19.317442" sodipodi:type="arc" class="st0" d="
		M506.2,1177.1c0,13.5-10.9,24.4-24.4,24.4c-13.5,0-24.4-10.9-24.4-24.4s10.9-24.4,24.4-24.4
		C495.3,1152.7,506.2,1163.6,506.2,1177.1z"/>
	<path id="path3022" inkscape:connector-curvature="0" class="st0" d="M676.3,1214.7c-47.5,0-78.2,36.4-78.2,79.5
		c0,44.5,30.7,77.2,78.9,77.2c45,0,67.1-28.1,67.1-28.1l-24.7-24.7c0,0-18.6,20.1-41.9,20.1c-19.4,0-35-10.9-40.4-30.8h115v-10.2
		C752.1,1257.3,728.7,1214.7,676.3,1214.7z M675.2,1247.2c17,0,34.4,9.1,38.3,30.8h-77.3C639.2,1262.8,652.6,1247.2,675.2,1247.2
		L675.2,1247.2z"/>
	<path id="path3024" inkscape:connector-curvature="0" sodipodi:nodetypes="ccccccccccc" class="st0" d="M844.4,1371.4
		c-47.7,0-80.2-36.3-80.2-79.1c0-44.2,36.7-77.6,80-77.6c41.8,0,63.3,29.5,63.3,29.5l-25.7,25.6c0,0-14.9-19.3-37.7-19.3
		c-25.3,0-42.5,19.3-42.5,42.3c0,24.3,18.4,42.9,42.2,42.9c23.2,0,38-19.2,38-19.2l26,25.6C907.8,1342.1,886.6,1371.4,844.4,1371.4
		L844.4,1371.4z"/>
	<path id="path3026" inkscape:connector-curvature="0" sodipodi:nodetypes="ccccccccccccc" class="st0" d="M921.2,1367.3v-210.7
		h36.9v77.4c0,0,14.1-19.3,44.9-19.3c38.6,0,61,28.7,61,65.5v87.2h-36.9v-81.6c0-24.7-15.4-34.9-32.4-34.9
		c-19.4,0-36.6,11-36.6,36.8v79.7H921.2z"/>
</g>
</svg>
